<svg xmlns="http://www.w3.org/2000/svg" width="960" height="320" viewBox="0 0 960 320" role="img" aria-label="Sudoku Reveal logo"><rect width="960" height="320" fill="#000000"/>
    <g>
      <rect x="77.12" y="62.76" width="170.56" height="170.56" rx="32.8" fill="none" stroke="#FFF" stroke-width="6.56"/>
      <path d="M77.12 62.76V233.32" stroke="#FFF" stroke-width="4.1"/><path d="M77.12 77.12H247.68" stroke="#FFF" stroke-width="4.1"/><path d="M96.07111111111112 62.76V233.32" stroke="#FFF" stroke-width="1.804"/><path d="M77.12 96.07111111111112H247.68" stroke="#FFF" stroke-width="1.804"/><path d="M115.02222222222223 62.76V233.32" stroke="#FFF" stroke-width="1.804"/><path d="M77.12 115.02222222222223H247.68" stroke="#FFF" stroke-width="1.804"/><path d="M133.97333333333333 62.76V233.32" stroke="#FFF" stroke-width="4.1"/><path d="M77.12 133.97333333333333H247.68" stroke="#FFF" stroke-width="4.1"/><path d="M152.92444444444445 62.76V233.32" stroke="#FFF" stroke-width="1.804"/><path d="M77.12 152.92444444444445H247.68" stroke="#FFF" stroke-width="1.804"/><path d="M171.87555555555556 62.76V233.32" stroke="#FFF" stroke-width="1.804"/><path d="M77.12 171.87555555555556H247.68" stroke="#FFF" stroke-width="1.804"/><path d="M190.82666666666665 62.76V233.32" stroke="#FFF" stroke-width="4.1"/><path d="M77.12 190.82666666666665H247.68" stroke="#FFF" stroke-width="4.1"/><path d="M209.77777777777777 62.76V233.32" stroke="#FFF" stroke-width="1.804"/><path d="M77.12 209.77777777777777H247.68" stroke="#FFF" stroke-width="1.804"/><path d="M228.7288888888889 62.76V233.32" stroke="#FFF" stroke-width="1.804"/><path d="M77.12 228.7288888888889H247.68" stroke="#FFF" stroke-width="1.804"/><path d="M247.68 62.76V233.32" stroke="#FFF" stroke-width="4.1"/><path d="M77.12 247.68H247.68" stroke="#FFF" stroke-width="4.1"/>
      <path d="M111.56 184.12C149.28 180.84 187 162.79999999999998 212.42 124.25999999999999" fill="none" stroke="#FFF" stroke-width="5.739999999999999" stroke-linecap="round"/>
      <path d="M152.56 120.16L178.8 98.84L200.12 122.62L170.6 143.12Z" fill="#FFF" stroke="#FFF" stroke-width="3.28"/>
      <circle cx="216.52" cy="89" r="8.2" fill="#FFF"/>
    </g><text x="300" y="138" font-family="Avenir Next, SF Pro Display, Helvetica Neue, Arial, sans-serif" font-size="72" font-weight="950" fill="#FFF">Sudoku</text><text x="300" y="210" font-family="Avenir Next, SF Pro Display, Helvetica Neue, Arial, sans-serif" font-size="72" font-weight="950" fill="#FFF">Reveal</text></svg>
